<?xml version="1.0" encoding="UTF-8" standalone="no"?><!DOCTYPE svg PUBLIC "-//W3C//DTD SVG 1.1//EN" "http://www.w3.org/Graphics/SVG/1.1/DTD/svg11.dtd"><svg width="100%" height="100%" viewBox="0 0 2678 556" version="1.1" xmlns="http://www.w3.org/2000/svg" xmlns:xlink="http://www.w3.org/1999/xlink" xml:space="preserve" xmlns:serif="http://www.serif.com/" style="fill-rule:evenodd;clip-rule:evenodd;stroke-linejoin:round;stroke-miterlimit:2;"><g><path d="M1720.32,223.939c6.283,-6.15 13.366,-10.695 21.261,-13.639c7.889,-2.939 15.844,-4.411 23.866,-4.411c9.895,-0 19.323,2.144 28.284,6.417c8.955,4.277 16.572,10.366 22.861,18.25c6.283,7.894 9.828,17.316 10.628,28.283l-0,3.205l-126.011,0c0.95,-5.033 2.188,-9.755 3.866,-14.038c3.878,-9.889 8.956,-17.917 15.245,-24.067Zm136.188,61.572c3.206,-2.805 4.806,-6.35 4.806,-10.628c-0.261,-15.244 -3.072,-28.883 -8.417,-40.916c-5.355,-12.034 -12.433,-22.467 -21.261,-31.295c-8.827,-8.816 -18.994,-15.5 -30.489,-20.05c-11.5,-4.544 -23.405,-6.822 -35.7,-6.822c-16.583,-0 -32.289,4.35 -47.133,13.039c-14.844,8.694 -26.878,21.261 -36.1,37.705c-9.228,16.445 -13.844,36.306 -13.844,59.573c-0,20.855 4.416,39.244 13.244,55.155c8.828,15.911 21.256,28.417 37.3,37.506c16.05,9.094 34.9,13.633 56.567,13.633c14.439,0 28.005,-3.072 40.711,-9.222c12.7,-6.15 22.933,-13.367 30.689,-21.667c4.272,-3.739 6.422,-7.883 6.422,-12.428c-0,-3.744 -1.345,-6.955 -4.017,-9.633c-2.677,-2.661 -5.883,-4.011 -9.627,-4.011c-3.478,0 -6.956,1.206 -10.428,3.611c-3.484,3.75 -7.695,7.422 -12.639,11.033c-4.95,3.612 -10.895,6.617 -17.85,9.028c-6.956,2.4 -15.111,3.606 -24.467,3.606c-14.983,-0 -28.083,-3.406 -39.311,-10.228c-11.233,-6.817 -19.994,-16.106 -26.278,-27.878c-5.461,-10.216 -8.533,-21.85 -9.255,-34.9l145.844,0c4.272,0 8.028,-1.405 11.233,-4.211Z" style="fill:#040305;fill-rule:nonzero;"/><path d="M2073.92,284.106c-0,-15.506 -3.145,-29.078 -9.423,-40.712c-6.294,-11.633 -14.844,-20.861 -25.677,-27.677c-10.834,-6.817 -22.934,-10.234 -36.3,-10.234c-13.639,0 -25.878,3.417 -36.706,10.234c-10.828,6.816 -19.455,16.044 -25.872,27.677c-6.422,11.634 -9.628,25.206 -9.628,40.712c0,15.244 3.206,28.75 9.628,40.516c6.417,11.767 15.044,21.061 25.872,27.878c10.828,6.822 23.067,10.233 36.706,10.233c13.366,0 25.466,-3.411 36.3,-10.233c10.833,-6.817 19.383,-16.111 25.677,-27.878c6.278,-11.766 9.423,-25.272 9.423,-40.516Zm32.494,-0c0,20.861 -4.611,39.455 -13.844,55.761c-9.222,16.311 -21.656,29.155 -37.3,38.511c-15.645,9.361 -33.234,14.033 -52.75,14.033c-19.528,0 -37.178,-4.672 -52.956,-14.033c-15.772,-9.356 -28.272,-22.2 -37.5,-38.511c-9.228,-16.306 -13.839,-34.9 -13.839,-55.761c0,-20.856 4.611,-39.439 13.839,-55.756c9.228,-16.311 21.728,-29.144 37.5,-38.506c15.778,-9.361 33.428,-14.044 52.956,-14.044c19.516,-0 37.105,4.683 52.75,14.044c15.644,9.362 28.078,22.195 37.3,38.506c9.233,16.317 13.844,34.9 13.844,55.756Z" style="fill:#040305;fill-rule:nonzero;"/><path d="M2142.51,355.511c-2.144,-3.478 -3.15,-7.15 -3.011,-11.033c0.128,-3.878 2.339,-7.284 6.622,-10.228c2.939,-1.872 6.217,-2.667 9.828,-2.406c3.606,0.267 6.878,2 9.828,5.217c7.478,8.822 16.044,15.839 25.666,21.056c9.628,5.216 21.395,7.822 35.3,7.822c6.15,-0.261 12.5,-1.333 19.056,-3.206c6.55,-1.872 12.033,-5.144 16.445,-9.833c4.416,-4.672 6.622,-10.889 6.622,-18.65c-0,-7.483 -2.273,-13.439 -6.817,-17.85c-4.55,-4.411 -10.5,-8.022 -17.85,-10.828c-7.361,-2.816 -15.183,-5.278 -23.472,-7.422c-8.822,-2.411 -17.517,-5.078 -26.072,-8.022c-8.562,-2.939 -16.245,-6.756 -23.062,-11.434c-6.822,-4.672 -12.305,-10.561 -16.45,-17.655c-4.15,-7.078 -6.222,-15.845 -6.222,-26.272c0,-12.034 3.278,-22.461 9.833,-31.289c6.551,-8.828 15.306,-15.645 26.278,-20.456c10.961,-4.811 23.122,-7.222 36.5,-7.222c7.484,-0 15.306,0.872 23.473,2.611c8.144,1.739 16.1,4.683 23.861,8.822c7.75,4.15 14.572,9.834 20.455,17.05c2.411,2.678 3.745,6.011 4.017,10.023c0.261,4.016 -1.478,7.627 -5.217,10.833c-2.944,2.15 -6.222,3.144 -9.828,3.011c-3.611,-0.133 -6.616,-1.406 -9.027,-3.806c-5.889,-6.955 -13.034,-12.238 -21.461,-15.85c-8.423,-3.611 -17.717,-5.416 -27.878,-5.416c-6.156,-0 -12.3,1.005 -18.45,3.005c-6.156,2.011 -11.306,5.156 -15.445,9.434c-4.15,4.277 -6.222,10.3 -6.222,18.044c0.272,7.222 2.672,13.111 7.228,17.656c4.539,4.55 10.689,8.222 18.45,11.033c7.75,2.806 16.305,5.544 25.672,8.222c8.561,2.139 16.772,4.611 24.667,7.422c7.883,2.8 15.044,6.484 21.461,11.028c6.422,4.556 11.5,10.367 15.244,17.45c3.745,7.089 5.617,15.984 5.617,26.678c-0,12.3 -3.483,22.928 -10.428,31.883c-6.955,8.967 -16.116,15.784 -27.478,20.461c-11.372,4.673 -23.605,7.017 -36.705,7.017c-14.706,0 -29.283,-2.744 -43.728,-8.222c-14.433,-5.472 -26.872,-15.045 -37.3,-28.678Z" style="fill:#040305;fill-rule:nonzero;"/><path d="M2436.54,175.8c13.905,-0 26.339,1.472 37.305,4.417c10.962,2.944 19.656,6.955 26.078,12.033c6.417,5.083 9.622,10.828 9.622,17.25c0,3.744 -1.205,7.222 -3.605,10.428c-2.411,3.205 -5.756,4.816 -10.033,4.816c-3.478,0 -6.35,-0.738 -8.623,-2.211c-2.277,-1.466 -4.411,-3.211 -6.416,-5.211c-2.011,-2.011 -4.756,-3.944 -8.223,-5.816c-3.211,-1.612 -7.894,-3.012 -14.044,-4.217c-6.156,-1.206 -12.3,-1.8 -18.45,-1.8c-14.706,-0 -27.611,3.478 -38.711,10.428c-11.095,6.955 -19.861,16.316 -26.272,28.083c-6.417,11.767 -9.628,25.133 -9.628,40.106c-0,14.983 3.072,28.35 9.222,40.116c6.156,11.772 14.711,21.128 25.672,28.084c10.967,6.955 23.667,10.427 38.111,10.427c9.361,0 16.784,-0.805 22.262,-2.405c5.483,-1.606 10.227,-3.478 14.244,-5.622c4.544,-2.673 8.083,-5.345 10.628,-8.023c2.539,-2.672 6.078,-4.011 10.633,-4.011c4.539,0 8.083,1.472 10.628,4.411c2.539,2.95 3.817,6.556 3.817,10.834c-0,5.083 -3.35,10.3 -10.039,15.644c-6.684,5.35 -15.778,9.833 -27.267,13.439c-11.511,3.611 -24.35,5.411 -38.517,5.411c-20.327,0 -38.105,-4.739 -53.355,-14.239c-15.239,-9.489 -27.072,-22.461 -35.5,-38.905c-8.417,-16.45 -12.628,-34.834 -12.628,-55.161c-0,-20.317 4.339,-38.639 13.033,-54.956c8.689,-16.311 20.795,-29.278 36.306,-38.906c15.505,-9.627 33.422,-14.444 53.75,-14.444Z" style="fill:#040305;fill-rule:nonzero;"/><path d="M1374.97,193.161c-17.555,-11.35 -37.9,-17.361 -58.811,-17.361c-20.933,-0 -41.283,6.011 -58.844,17.378c-3.584,2.322 -5.889,6.105 -6.35,10.383c-0.461,4.372 1.055,8.656 4.155,11.756l5.884,5.883c2.788,2.789 6.45,4.233 10.138,4.233c2.562,0 5.134,-0.7 7.439,-2.116c11.295,-6.984 24.295,-10.678 37.578,-10.678c13.267,-0 26.256,3.689 37.55,10.661c5.628,3.472 12.85,2.606 17.572,-2.117l5.884,-5.883c3.105,-3.106 4.616,-7.389 4.155,-11.761c-0.461,-4.278 -2.772,-8.061 -6.35,-10.378Z" style="fill:#008691;fill-rule:nonzero;"/><path d="M1299.49,354.861c-32.794,-7.755 -55.7,-36.711 -55.7,-70.411c0,-13.361 3.712,-26.444 10.734,-37.811c3.339,-5.411 2.5,-12.361 -2.045,-16.895l-5.883,-5.888c-2.983,-2.984 -7.106,-4.434 -11.311,-3.995c-4.122,0.439 -7.756,2.661 -9.978,6.106c-11.294,17.455 -17.255,37.683 -17.255,58.483c-0,50.556 35.866,94.983 85.277,105.65c0.945,0.2 1.889,0.3 2.839,0.3c3.05,-0 6.039,-1.05 8.495,-3.028c3.294,-2.661 5.183,-6.611 5.183,-10.833l-0,-8.211c-0,-6.384 -4.356,-12.05 -10.356,-13.467Z" style="fill:#ff5d81;fill-rule:nonzero;"/><path d="M1496.62,176.35c-59.616,-0 -108.105,48.494 -108.105,108.106l0.055,0.472l-0.061,0.539c-0.467,33.911 -24.955,63.327 -58.217,69.944c-4.538,0.9 -7.827,4.911 -7.827,9.528l-0,16.5c-0,2.883 1.261,5.617 3.466,7.494c2.156,1.834 4.984,2.623 7.745,2.167c52.489,-8.583 90.583,-53.439 90.583,-106.65c0,-39.9 32.461,-72.356 72.361,-72.356c39.906,0 72.361,32.456 72.361,72.362c0,39.9 -32.455,72.361 -72.361,72.361c-9.855,-0 -17.872,8.011 -17.872,17.872c-0,9.85 8.017,17.867 17.872,17.867c59.611,-0 108.106,-48.495 108.106,-108.1c-0,-59.612 -48.495,-108.106 -108.106,-108.106Z" style="fill:#008691;fill-rule:nonzero;"/><rect x="1072.78" y="67.7" width="4.622" height="432.411" style="fill:#040305;fill-rule:nonzero;"/><path d="M370.806,357.45c9.394,-0 16.605,-2.178 21.644,-6.533c5.039,-4.35 7.556,-10.556 7.556,-18.617c-0,-7.644 -2.573,-13.783 -7.728,-18.422c-5.15,-4.639 -12.267,-6.956 -21.356,-6.956l-30.628,0l0,83.034l10.95,-0l0,-32.506l19.562,-0Zm-19.562,-41.578l20.306,0c5.433,0.117 9.711,1.656 12.833,4.628c3.117,2.972 4.673,6.933 4.673,11.883c-0,5.217 -1.556,9.211 -4.673,11.973c-3.122,2.761 -7.605,4.138 -13.461,4.138l-19.678,0l0,-32.622Zm90.912,12.034c-1.067,-0.528 -2.628,-0.795 -4.678,-0.795c-6.35,0 -11.256,2.756 -14.717,8.267l-0.167,-7.128l-10.266,-0l-0,61.706l10.55,-0l-0,-43.8c2.472,-5.889 7.166,-8.839 14.089,-8.839c1.861,-0 3.589,0.133 5.189,0.4l-0,-9.811Zm5.761,31.366c-0,9.584 2.594,17.284 7.783,23.1c5.189,5.817 11.967,8.728 20.328,8.728c5.555,0 10.466,-1.333 14.744,-3.994c4.278,-2.662 7.567,-6.378 9.867,-11.15c2.3,-4.773 3.45,-10.162 3.45,-16.167l-0,-0.745c-0,-9.655 -2.595,-17.394 -7.783,-23.211c-5.189,-5.816 -11.989,-8.722 -20.389,-8.722c-5.439,0 -10.278,1.311 -14.517,3.933c-4.239,2.623 -7.544,6.35 -9.922,11.178c-2.378,4.828 -3.561,10.267 -3.561,16.311l-0,0.739Zm15.394,-17.278c3.195,-4.144 7.395,-6.216 12.606,-6.216c5.322,-0 9.589,2.1 12.805,6.3c3.211,4.205 4.817,9.689 4.817,16.455c-0,7.567 -1.578,13.45 -4.733,17.65c-3.156,4.2 -7.417,6.3 -12.778,6.3c-5.322,0 -9.572,-2.066 -12.745,-6.211c-3.172,-4.144 -4.761,-9.639 -4.761,-16.483c0,-7.717 1.595,-13.65 4.789,-17.795Zm58.2,40.378c4.467,5.817 10.317,8.728 17.539,8.728c7.3,0 13.061,-2.433 17.283,-7.3l0,5.3c0,5.25 -1.439,9.317 -4.311,12.206c-2.866,2.888 -6.872,4.333 -12.005,4.333c-6.539,-0 -12.067,-2.795 -16.595,-8.383l-5.472,6.333c2.239,3.305 5.494,5.911 9.75,7.811c4.261,1.9 8.611,2.85 13.061,2.85c7.983,0 14.345,-2.3 19.078,-6.9c4.733,-4.6 7.1,-10.889 7.1,-18.878l-0,-60.222l-9.639,-0l-0.511,6.844c-4.222,-5.322 -10.095,-7.983 -17.622,-7.983c-7.339,0 -13.234,2.839 -17.684,8.522c-4.45,5.684 -6.672,13.339 -6.672,22.956c0,10.039 2.233,17.967 6.7,23.783Zm8.245,-40.322c2.888,-3.989 6.9,-5.989 12.033,-5.989c6.461,0 11.311,2.95 14.544,8.839l0,28.178c-3.122,6.044 -8.005,9.066 -14.661,9.066c-5.133,0 -9.122,-1.988 -11.978,-5.961c-2.85,-3.972 -4.277,-9.439 -4.277,-16.394c-0,-7.833 1.444,-13.745 4.339,-17.739Zm82.922,-14.144c-1.061,-0.528 -2.622,-0.795 -4.672,-0.795c-6.35,0 -11.256,2.756 -14.717,8.267l-0.172,-7.128l-10.267,-0l0,61.706l10.556,-0l-0,-43.8c2.466,-5.889 7.161,-8.839 14.083,-8.839c1.861,-0 3.594,0.133 5.189,0.4l-0,-9.811Zm56.578,62.05l-0,-0.912c-1.445,-3.344 -2.167,-7.85 -2.167,-13.516l-0,-28.4c-0.156,-6.239 -2.245,-11.134 -6.272,-14.689c-4.034,-3.55 -9.606,-5.328 -16.711,-5.328c-4.489,0 -8.606,0.833 -12.35,2.506c-3.745,1.672 -6.712,3.944 -8.895,6.816c-2.189,2.873 -3.283,5.845 -3.283,8.928l10.611,0c-0,-2.7 1.272,-5 3.822,-6.905c2.545,-1.9 5.7,-2.85 9.467,-2.85c4.294,-0 7.544,1.094 9.75,3.277c2.205,2.189 3.311,5.128 3.311,8.811l-0,4.85l-10.267,0c-8.861,0 -15.733,1.778 -20.616,5.334c-4.889,3.555 -7.328,8.544 -7.328,14.972c-0,5.283 1.944,9.644 5.844,13.089c3.895,3.439 8.889,5.161 14.972,5.161c6.806,0 12.662,-2.55 17.562,-7.644c0.383,3.116 0.877,5.283 1.483,6.5l11.067,-0Zm-37.073,-10.834c-2.205,-1.861 -3.305,-4.45 -3.305,-7.755c-0,-7.567 6.461,-11.35 19.389,-11.35l8.272,-0l-0,12.661c-1.333,2.739 -3.483,4.961 -6.445,6.672c-2.966,1.711 -6.105,2.567 -9.411,2.567c-3.461,-0 -6.294,-0.934 -8.5,-2.795Zm51.389,-50.872l0,61.706l10.55,-0l0,-45.056c2.545,-5.889 7.278,-8.839 14.2,-8.839c8.778,0 13.172,4.489 13.172,13.461l0,40.434l10.612,-0l-0,-40.945c0.416,-3.955 1.916,-7.1 4.505,-9.439c2.583,-2.339 5.833,-3.511 9.75,-3.511c4.75,0 8.133,1.095 10.15,3.283c2.017,2.184 3.022,5.484 3.022,9.895l0,40.717l10.55,-0l0,-41.345c-0.227,-14.333 -7.105,-21.5 -20.644,-21.5c-4.483,0 -8.372,0.911 -11.661,2.733c-3.289,1.828 -5.961,4.223 -8.011,7.189c-3.123,-6.616 -8.995,-9.922 -17.623,-9.922c-7.683,0 -13.783,2.661 -18.311,7.983l-0.283,-6.844l-9.978,-0Zm102.367,-0l-0,61.706l10.55,-0l-0,-45.056c2.55,-5.889 7.283,-8.839 14.205,-8.839c8.778,0 13.173,4.489 13.173,13.461l-0,40.434l10.605,-0l0,-40.945c0.422,-3.955 1.922,-7.1 4.506,-9.439c2.589,-2.339 5.839,-3.511 9.755,-3.511c4.75,0 8.134,1.095 10.15,3.283c2.017,2.184 3.023,5.484 3.023,9.895l-0,40.717l10.55,-0l-0,-41.345c-0.228,-14.333 -7.112,-21.5 -20.645,-21.5c-4.489,0 -8.372,0.911 -11.661,2.733c-3.289,1.828 -5.961,4.223 -8.017,7.189c-3.116,-6.616 -8.989,-9.922 -17.622,-9.922c-7.678,0 -13.783,2.661 -18.305,7.983l-0.284,-6.844l-9.983,-0Zm151.305,50.928l-6.444,-5.017c-1.939,2.506 -4.2,4.522 -6.789,6.045c-2.583,1.522 -5.739,2.277 -9.467,2.277c-5.244,0 -9.572,-1.872 -12.972,-5.616c-3.405,-3.745 -5.183,-8.656 -5.333,-14.739l41.805,-0l0,-4.395c0,-9.844 -2.227,-17.411 -6.672,-22.7c-4.45,-5.283 -10.689,-7.922 -18.711,-7.922c-4.9,0 -9.455,1.356 -13.655,4.078c-4.2,2.717 -7.473,6.478 -9.812,11.289c-2.338,4.811 -3.505,10.278 -3.505,16.4l-0,1.939c-0,9.2 2.622,16.544 7.872,22.039c5.245,5.494 12.05,8.244 20.417,8.244c10.339,0 18.094,-3.972 23.266,-11.922Zm-14.088,-38.978c2.588,2.944 4.033,7.1 4.338,12.461l0,0.795l-30.911,-0c0.684,-5.589 2.467,-9.934 5.361,-13.028c2.889,-3.1 6.462,-4.65 10.717,-4.65c4.411,-0 7.911,1.472 10.495,4.422Z" style="fill:#040305;fill-rule:nonzero;"/><path d="M230.228,170.656l-10.895,-0l0,64.272l-41.916,-64.272l-11.011,-0l-0,83.033l11.011,-0l-0,-63.989l41.8,63.989l11.011,-0l-0,-83.033Zm66.95,83.033l-0,-0.911c-1.445,-3.345 -2.167,-7.85 -2.167,-13.517l0,-28.4c-0.15,-6.239 -2.244,-11.133 -6.272,-14.689c-4.028,-3.55 -9.6,-5.328 -16.711,-5.328c-4.484,0 -8.6,0.834 -12.345,2.506c-3.744,1.672 -6.711,3.944 -8.9,6.817c-2.183,2.872 -3.277,5.844 -3.277,8.927l10.611,0c-0,-2.7 1.272,-5 3.816,-6.905c2.55,-1.9 5.706,-2.85 9.467,-2.85c4.3,-0 7.55,1.094 9.756,3.278c2.205,2.189 3.305,5.127 3.305,8.811l0,4.85l-10.267,-0c-8.855,-0 -15.727,1.778 -20.616,5.333c-4.884,3.556 -7.328,8.545 -7.328,14.972c0,5.284 1.95,9.645 5.844,13.089c3.9,3.439 8.889,5.161 14.973,5.161c6.805,0 12.661,-2.55 17.566,-7.644c0.378,3.117 0.873,5.283 1.484,6.5l11.061,-0Zm-37.067,-10.833c-2.205,-1.862 -3.311,-4.45 -3.311,-7.756c-0,-7.567 6.467,-11.35 19.394,-11.35l8.267,0l0,12.661c-1.328,2.739 -3.478,4.961 -6.444,6.672c-2.967,1.711 -6.1,2.567 -9.411,2.567c-3.456,-0 -6.289,-0.933 -8.495,-2.794Zm55.206,-65.817l-0,14.944l-11.234,0l0,8.156l11.234,-0l-0,38.267c-0,5.25 1.2,9.294 3.594,12.15c2.395,2.85 5.95,4.277 10.661,4.277c2.628,0 5.322,-0.377 8.1,-1.133l0,-8.506c-2.128,0.456 -3.8,0.684 -5.016,0.684c-2.473,-0 -4.223,-0.617 -5.25,-1.856c-1.028,-1.239 -1.539,-3.094 -1.539,-5.566l-0,-38.317l11.522,-0l-0,-8.156l-11.522,0l-0,-14.944l-10.55,-0Zm45.855,14.944l-10.555,0l-0,61.706l10.555,-0l0,-61.706Zm-9.839,-12.089c1.045,1.139 2.595,1.712 4.645,1.712c2.055,-0 3.611,-0.573 4.678,-1.712c1.066,-1.144 1.6,-2.566 1.6,-4.277c-0,-1.711 -0.534,-3.156 -1.6,-4.339c-1.067,-1.178 -2.623,-1.767 -4.678,-1.767c-2.05,0 -3.6,0.589 -4.645,1.767c-1.05,1.183 -1.572,2.628 -1.572,4.339c0,1.711 0.522,3.133 1.572,4.277Zm23.923,43.112c-0,9.583 2.594,17.283 7.783,23.1c5.194,5.816 11.967,8.727 20.333,8.727c5.55,0 10.467,-1.333 14.745,-3.994c4.277,-2.661 7.566,-6.378 9.866,-11.15c2.3,-4.772 3.45,-10.161 3.45,-16.167l0,-0.744c0,-9.656 -2.594,-17.395 -7.789,-23.211c-5.188,-5.817 -11.983,-8.723 -20.383,-8.723c-5.439,0 -10.278,1.312 -14.517,3.934c-4.238,2.622 -7.55,6.35 -9.922,11.178c-2.378,4.827 -3.566,10.266 -3.566,16.311l-0,0.739Zm15.4,-17.278c3.194,-4.145 7.394,-6.217 12.605,-6.217c5.322,0 9.589,2.1 12.8,6.3c3.211,4.206 4.822,9.689 4.822,16.456c0,7.566 -1.577,13.45 -4.733,17.65c-3.161,4.2 -7.417,6.3 -12.778,6.3c-5.322,-0 -9.572,-2.067 -12.744,-6.211c-3.178,-4.145 -4.761,-9.639 -4.761,-16.484c-0,-7.716 1.594,-13.65 4.789,-17.794Zm54.005,-13.745l0,61.706l10.55,-0l0,-43.972c1.45,-2.961 3.461,-5.356 6.05,-7.184c2.583,-1.822 5.589,-2.739 9.011,-2.739c4.217,0 7.328,1.067 9.322,3.195c1.995,2.133 3.012,5.417 3.05,9.867l0,40.833l10.55,-0l0,-40.778c-0.111,-14.711 -6.688,-22.067 -19.727,-22.067c-7.606,0 -13.767,2.962 -18.484,8.895l-0.339,-7.756l-9.983,0Zm113.611,61.706l0,-0.911c-1.444,-3.345 -2.166,-7.85 -2.166,-13.517l-0,-28.4c-0.156,-6.239 -2.245,-11.133 -6.278,-14.689c-4.028,-3.55 -9.6,-5.328 -16.711,-5.328c-4.484,0 -8.6,0.834 -12.345,2.506c-3.744,1.672 -6.711,3.944 -8.9,6.817c-2.183,2.872 -3.278,5.844 -3.278,8.927l10.612,0c-0,-2.7 1.272,-5 3.816,-6.905c2.55,-1.9 5.706,-2.85 9.467,-2.85c4.3,-0 7.55,1.094 9.755,3.278c2.206,2.189 3.306,5.127 3.306,8.811l-0,4.85l-10.267,-0c-8.855,-0 -15.727,1.778 -20.616,5.333c-4.884,3.556 -7.328,8.545 -7.328,14.972c-0,5.284 1.95,9.645 5.85,13.089c3.894,3.439 8.883,5.161 14.967,5.161c6.805,0 12.661,-2.55 17.566,-7.644c0.378,3.117 0.872,5.283 1.484,6.5l11.066,-0Zm-37.072,-10.833c-2.206,-1.862 -3.311,-4.45 -3.311,-7.756c-0,-7.567 6.467,-11.35 19.394,-11.35l8.267,0l-0,12.661c-1.328,2.739 -3.478,4.961 -6.444,6.672c-2.967,1.711 -6.1,2.567 -9.412,2.567c-3.455,-0 -6.288,-0.933 -8.494,-2.794Zm62.906,-76.767l-10.55,-0l-0,87.6l10.55,-0l-0,-87.6Zm97.522,61.255c-1.061,6.839 -3.222,11.645 -6.472,14.4c-3.25,2.756 -7.917,4.134 -14,4.134c-6.767,-0 -12.034,-2.667 -15.795,-7.989c-3.767,-5.328 -5.65,-12.506 -5.65,-21.522l0,-8.05c0,-9.55 1.989,-16.911 5.961,-22.089c3.972,-5.172 9.456,-7.761 16.456,-7.761c5.7,-0 10.139,1.489 13.316,4.461c3.173,2.972 5.234,7.783 6.184,14.416l11.011,0c-0.878,-8.705 -3.972,-15.522 -9.3,-20.444c-5.322,-4.928 -12.395,-7.389 -21.211,-7.389c-6.656,0 -12.511,1.572 -17.567,4.706c-5.055,3.139 -8.967,7.633 -11.722,13.489c-2.756,5.855 -4.133,12.644 -4.133,20.361l-0,7.983c-0,11.789 2.955,21.194 8.866,28.228c5.911,7.039 13.772,10.555 23.584,10.555c9.05,0 16.3,-2.389 21.755,-7.161c5.456,-4.772 8.7,-11.55 9.728,-20.328l-11.011,0Zm68.611,-27.888l-0,-7.473l-46.767,0l0,8.728l33.534,0l-34.045,45.222l0,7.756l48.989,-0l-0,-8.611l-36.1,-0l34.389,-45.622Zm61.539,43.455l-6.445,-5.017c-1.939,2.506 -4.205,4.523 -6.789,6.045c-2.583,1.522 -5.738,2.278 -9.466,2.278c-5.25,-0 -9.572,-1.873 -12.978,-5.617c-3.4,-3.744 -5.178,-8.656 -5.328,-14.739l41.8,0l0,-4.394c0,-9.845 -2.222,-17.411 -6.672,-22.7c-4.444,-5.284 -10.683,-7.923 -18.706,-7.923c-4.905,0 -9.455,1.356 -13.655,4.078c-4.206,2.717 -7.472,6.478 -9.811,11.289c-2.339,4.811 -3.511,10.278 -3.511,16.4l-0,1.939c-0,9.2 2.627,16.544 7.872,22.039c5.25,5.494 12.055,8.244 20.417,8.244c10.344,0 18.1,-3.972 23.272,-11.922Zm-14.089,-38.978c2.583,2.945 4.028,7.1 4.333,12.461l0,0.795l-30.911,-0c0.683,-5.589 2.472,-9.933 5.361,-13.028c2.889,-3.1 6.467,-4.65 10.722,-4.65c4.412,0 7.912,1.472 10.495,4.422Zm39.294,36.528c-2.927,-3.839 -4.389,-9.317 -4.389,-16.428l0,-1.994c0,-7.3 1.473,-12.878 4.417,-16.739c2.945,-3.861 7.1,-5.789 12.461,-5.789c3.995,0 7.35,1.283 10.067,3.85c2.717,2.567 4.228,5.845 4.533,9.839l9.984,-0c-0.306,-6.617 -2.75,-11.994 -7.328,-16.139c-4.584,-4.144 -10.334,-6.217 -17.256,-6.217c-5.628,0 -10.5,1.289 -14.628,3.878c-4.127,2.584 -7.288,6.217 -9.494,10.889c-2.206,4.678 -3.311,10.022 -3.311,16.028l-0,1.767c-0,9.733 2.483,17.405 7.444,23.011c4.961,5.611 11.645,8.416 20.045,8.416c4.183,0 8.15,-0.955 11.894,-2.855c3.745,-1.9 6.739,-4.445 8.984,-7.639c2.238,-3.195 3.455,-6.561 3.65,-10.095l-9.984,0c-0.305,3.423 -1.861,6.273 -4.678,8.556c-2.811,2.278 -6.1,3.417 -9.866,3.417c-5.434,-0 -9.617,-1.917 -12.545,-5.756Zm59.484,-74.372l-10.55,-0l-0,87.6l10.55,-0l-0,-43.972c1.444,-2.961 3.461,-5.356 6.044,-7.184c2.589,-1.822 5.589,-2.739 9.011,-2.739c4.222,0 7.328,1.067 9.328,3.195c1.994,2.133 3.011,5.417 3.05,9.867l0,40.833l10.55,-0l0,-40.778c-0.117,-14.711 -6.694,-22.067 -19.733,-22.067c-7.489,0 -13.573,2.867 -18.25,8.612l-0,-33.367Z" style="fill:#040305;fill-rule:nonzero;"/></g></svg>